<?xml version="1.0" encoding="utf-8"?>
<!-- Generator: Adobe Illustrator 19.2.1, SVG Export Plug-In . SVG Version: 6.00 Build 0)  -->
<svg version="1.1" id="layer" xmlns="http://www.w3.org/2000/svg" xmlns:xlink="http://www.w3.org/1999/xlink" x="0px" y="0px"
	 viewBox="0 0 652 652" style="enable-background:new 0 0 652 652;" xml:space="preserve">
<style type="text/css">
	.st0{fill:#6A6B68;}
</style>
<path class="st0" d="M308.7,301.6c0.4,0,0.8,0.4,0.8,0.8v4.1c0,0.4-0.4,0.8-0.8,0.8h-17.6c-0.4,0-0.8,0.4-0.8,0.8v12.7
	c0,0.4,0.4,0.8,0.8,0.8h15.8c0.4,0,0.8,0.4,0.8,0.8v4.1c0,0.4-0.4,0.8-0.8,0.8h-15.8c-0.4,0-0.8,0.4-0.8,0.8v16.7
	c0,0.4,0.4,0.8,0.8,0.8h17.6c0.4,0,0.8,0.4,0.8,0.8v4.1c0,0.4-0.4,0.8-0.8,0.8h-5.9h-13.3h-4.6c-0.4,0-0.8-0.4-0.8-0.8v-3.6v-10.1
	v-20.6v-11.3v-2.4c0-0.4,0.4-0.8,0.8-0.8h1.6h16.3H308.7 M611.7,301.6h-5.9h-16.3h-1.6c-0.4,0-0.8,0.4-0.8,0.8v2.4v11.3v20.6v10.1
	v3.6c0,0.4,0.4,0.8,0.8,0.8h4.5h13.3h5.9c0.4,0,0.8-0.4,0.8-0.8v-4.1c0-0.4-0.4-0.8-0.8-0.8h-17.6c-0.4,0-0.8-0.4-0.8-0.8v-16.7
	c0-0.4,0.4-0.8,0.8-0.8h15.8c0.4,0,0.8-0.4,0.8-0.8v-4.1c0-0.4-0.4-0.8-0.8-0.8h-15.8c-0.4,0-0.8-0.4-0.8-0.8v-12.7
	c0-0.4,0.4-0.8,0.8-0.8h17.6c0.4,0,0.8-0.4,0.8-0.8v-4.1C612.5,301.9,612.1,301.6,611.7,301.6 M271.4,301.6h-34
	c-0.4,0-0.8,0.4-0.8,0.8v4.1c0,0.4,0.4,0.8,0.8,0.8h13.1c0.4,0,0.8,0.4,0.8,0.8v42.4c0,0.4,0.4,0.8,0.8,0.8h4.6
	c0.4,0,0.8-0.4,0.8-0.8v-42.4c0-0.4,0.4-0.8,0.8-0.8h13.1c0.4,0,0.8-0.4,0.8-0.8v-4.1C272.3,301.9,271.9,301.6,271.4,301.6
	 M183.2,333.1l-8.6-19.4c-0.2-0.4-0.5-0.4-0.6,0l-8.2,18.6c-0.2,0.4,0,0.7,0.5,0.7H183.2z M197.6,350.5c0.2,0.4,0,0.7-0.5,0.7h-5.1
	c-0.4,0-1-0.3-1.1-0.7l-5.2-11.7h-22.1c-0.4,0-0.9,0.3-1.1,0.7l-5,11c-0.2,0.4-0.7,0.7-1.1,0.7h-5.1c-0.4,0-0.7-0.3-0.5-0.7
	l22.1-48.2c0.2-0.4,0.7-0.7,1.1-0.7h0.3c0.4,0,1,0.3,1.1,0.7L197.6,350.5z M233.1,345.6h-17.6c-0.4,0-0.8-0.4-0.8-0.8v-42.4
	c0-0.4-0.4-0.8-0.8-0.8h-4.6c-0.4,0-0.8,0.4-0.8,0.8v48.1c0,0.4,0.4,0.8,0.8,0.8h23.8c0.4,0,0.8-0.4,0.8-0.8v-4.1
	C233.9,346,233.5,345.6,233.1,345.6 M342,324.2c5.9,0,9.2-3.1,9.2-8.5c0-5.3-3.4-8.6-9.2-8.6h-3.8h-0.7h-0.9h-4.5h-1.3
	c-0.4,0-0.7,0.4-0.7,0.8v16.2H342z M358.2,350.5c0.2,0.4,0,0.7-0.4,0.7H352c-0.4,0-0.9-0.3-1.1-0.7l-10.1-20
	c-0.2-0.4-0.7-0.7-1.1-0.7h-3.9h-5c-0.4,0-0.8,0.4-0.8,0.8v19.9c0,0.4-0.4,0.8-0.8,0.8h-4.5c-0.4,0-0.8-0.4-0.8-0.8v-21.7V325v-22.6
	c0-0.4,0.4-0.8,0.8-0.8h17.9c8.9,0,14.8,5.7,14.8,14.1c0,6.5-3.5,11.3-9.4,13.2h0c-0.6,0.2-0.7,0.6-0.4,1.1L358.2,350.5z
	 M453.5,333.1c0.4,0,0.7-0.3,0.5-0.7l-8.5-18.9l-8.9,19.7H453.5 M468.8,350.5c0.2,0.4,0,0.7-0.5,0.7h-5.1c-0.4,0-0.9-0.3-1.1-0.7
	l-5-11c-0.2-0.4-0.7-0.7-1.1-0.7h-22l-5.3,11.7c-0.2,0.4-0.7,0.7-1.1,0.7h-5.1c-0.4,0-0.7-0.3-0.5-0.7l22.1-48.2
	c0.2-0.4,0.7-0.7,1.1-0.7h0.3c0.4,0,1,0.3,1.1,0.7L468.8,350.5z M504.1,301.6h-34c-0.5,0-0.8,0.4-0.8,0.8v4.1c0,0.4,0.3,0.8,0.8,0.8
	h13.1c0.4,0,0.8,0.4,0.8,0.8v42.4c0,0.4,0.4,0.8,0.8,0.8h4.6c0.4,0,0.8-0.4,0.8-0.8v-42.4c0-0.4,0.4-0.8,0.8-0.8h13.1
	c0.4,0,0.8-0.4,0.8-0.8v-4.1C504.9,301.9,504.5,301.6,504.1,301.6 M522.6,301.6h-4.6c-0.4,0-0.8,0.4-0.8,0.8v48.1
	c0,0.4,0.4,0.8,0.8,0.8h4.6c0.4,0,0.8-0.4,0.8-0.8v-48.1C523.4,301.9,523.1,301.6,522.6,301.6 M577.8,301.6h-5.2
	c-0.4,0-0.9,0.3-1.1,0.7L557,338.1l-14.4-35.8c-0.2-0.4-0.7-0.7-1.1-0.7h-5.2c-0.4,0-0.7,0.3-0.5,0.7l19.9,48.2
	c0.2,0.4,0.7,0.7,1.1,0.7h0.6c0.3,0,0.7-0.2,1-0.5c0.1-0.1,0.1-0.1,0.1-0.2l19.8-48.2C578.5,301.9,578.3,301.6,577.8,301.6
	 M410.9,301.6h-4.5c-0.4,0-0.8,0.4-0.8,0.8v35c0,0.5-0.2,0.5-0.5,0.2l-27.7-35.4c-0.3-0.3-0.9-0.6-1.4-0.6h-2.5
	c-0.4,0-0.8,0.4-0.8,0.8v48c0,0.4,0.4,0.8,0.8,0.8h4.6c0.4,0,0.8-0.4,0.8-0.8v-36c0-0.4,0.2-0.5,0.5-0.2l28.2,36.4
	c0.3,0.3,0.9,0.6,1.4,0.6h1.9c0.4,0,0.8-0.4,0.8-0.8v-48C411.7,301.9,411.3,301.6,410.9,301.6 M76.2,314.6c0.3,0,0.6,0.2,0.9,0.6
	c0.2,0.4,5.8,10.1,5.8,10.1c0.1,0.2,0.4,0.7,0.7,0.2c0.3-0.4,1.6-2.6,1.8-3c0.2-0.4,0.3-0.6,0.2-0.8c-0.1-0.1-4.8-8.4-7.8-13.4
	c-1.6-2.6-5.7-9.6-5.7-13c0-1.7,0.4-5.6,4.3-5.6c3.9,0,4.3,3.9,4.3,5.6c0,0.9-0.3,2.5-1.6,5.5l-0.4,0.9c0,0,0,0,0,0.1c0,0,0,0,0,0h0
	c-0.1,0.2,0.1,0.4,0.2,0.6c0.2,0.3,1.5,2.7,1.7,3c0.2,0.3,0.4,0.3,0.7-0.2l0.9-1.7c1.7-3.5,2.5-6.1,2.5-8.2c0-4.8-2.6-9.6-8.3-9.6
	c-5.7,0-8.3,4.8-8.3,9.6c0,3.3,2,7.6,4.6,12.1c1.1,2,1.2,2.6,0.5,3.8l-8.7,15c-0.2,0.4-0.6,0.7-0.9,0.7c-0.3,0-0.7-0.2-0.9-0.7
	l-6.2-10.6c-0.5-0.9-1.7-1.2-2.6-0.7l-0.1,0.1c-0.9,0.5-1.2,1.7-0.7,2.6l7.9,13.6l0.3,0.5l-9.5,16.4c-0.3,0.5-0.6,0.7-1,0.7
	c0,0,0,0,0,0c-0.3,0-0.7-0.2-0.9-0.7l0,0l-6-10.5c-0.5-0.9-1.7-1.2-2.6-0.7L41,337c-0.9,0.5-1.2,1.7-0.7,2.6l9.5,16.5
	c0.1,0.1,0.1,0.2,0.2,0.3c0.1,0.1,0.1,0.1,0.2,0.2c0,0,0,0,0,0c0,0,0,0,0,0h0h0c0,0,0,0,0,0c0.1,0.1,0.2,0.1,0.3,0.1h0
	c0.2,0,0.3,0,0.5,0c0,0,0,0,0,0c0.1,0,0.1-0.1,0.2-0.1c0,0,0,0,0.1-0.1c0,0,0.1-0.1,0.1-0.1c0.1-0.1,0.1-0.2,0.2-0.3l11.8-20.4
	l1.3-2.2l10.6-18.3C75.6,314.8,75.9,314.6,76.2,314.6 M102.5,348.4c-0.1,0.1-0.2,0.2-0.3,0.3c0,0,0,0,0,0c-0.1,0-0.1,0.1-0.2,0.1
	c-0.4,0.1-0.9-0.1-1.2-0.6l-8.2-14.1c-1.1-2-1.2-2.6-0.5-3.8l7.4-12.7c0.5-0.9,0.2-2.1-0.7-2.6l-0.1-0.1c-0.9-0.5-2.1-0.2-2.6,0.7
	l-18.9,32.6c-0.3,0.4-0.6,0.7-0.9,0.7c-0.3,0-0.6-0.2-0.9-0.7L69.4,338c-0.1-0.2-0.4-0.7-0.7-0.2c-0.3,0.4-1.5,2.5-1.7,2.9
	c-0.2,0.4-0.3,0.6-0.2,0.8l8.5,14.6c0.2,0.4,0.6,0.6,0.9,0.7c0.3,0,0.7-0.2,0.9-0.7L89,335.7l11.8,20.4c0.5,0.9,1.4,0.9,1.9,0
	l9.5-16.5c0.5-0.9,0.2-2.1-0.7-2.6l-0.1-0.1c-0.9-0.5-2.1-0.2-2.6,0.7l-6,10.5C102.6,348.3,102.6,348.3,102.5,348.4 M76.2,372
	c25.2,0,45.6-20.5,45.6-45.6c0-25.2-20.5-45.6-45.6-45.6c-25.1,0-45.6,20.5-45.6,45.6C30.6,351.6,51.1,372,76.2,372 M76.2,276.8
	c27.4,0,49.7,22.3,49.7,49.7c0,27.4-22.3,49.7-49.7,49.7c-27.4,0-49.7-22.3-49.7-49.7C26.6,299,48.9,276.8,76.2,276.8 M624.9,351
	c0.7-0.7,1.1-1.6,1.1-2.6c0-1-0.3-1.9-1-2.6c-0.7-0.7-1.6-1.1-2.6-1.1c-1,0-1.9,0.4-2.6,1.1c-0.7,0.7-1.1,1.6-1.1,2.6
	c0,1,0.3,1.9,1,2.6c0.7,0.7,1.6,1.1,2.6,1.1C623.3,352.1,624.2,351.7,624.9,351 M625.3,345.4c0.8,0.8,1.2,1.8,1.2,3
	c0,1.2-0.4,2.2-1.2,3c-0.8,0.8-1.8,1.2-3,1.2c-1.2,0-2.2-0.4-3-1.2c-0.8-0.8-1.2-1.8-1.2-3c0-1.2,0.4-2.2,1.2-3
	c0.8-0.8,1.8-1.2,3-1.2C623.5,344.2,624.5,344.6,625.3,345.4 M622.9,348.2c0.3-0.1,0.4-0.3,0.4-0.6c0-0.3-0.1-0.5-0.2-0.6
	c-0.2-0.1-0.4-0.1-0.8-0.1h-0.6v1.4h0.6C622.5,348.3,622.7,348.3,622.9,348.2 M623.9,350c0,0.1,0,0.2,0,0.2l0,0.1h-0.6c0,0,0,0,0,0
	c0,0,0,0,0,0l0-0.1v-0.3c0-0.4-0.1-0.7-0.4-0.9c-0.1-0.1-0.4-0.1-0.7-0.1h-0.5v1.5H621v-3.8h1.3c0.5,0,0.8,0.1,1,0.1
	c0.4,0.2,0.6,0.5,0.6,1c0,0.3-0.1,0.6-0.4,0.7c-0.1,0.1-0.3,0.1-0.5,0.2c0.3,0,0.5,0.2,0.6,0.4c0.1,0.2,0.2,0.4,0.2,0.6v0.3
	C623.9,349.8,623.9,349.9,623.9,350"/>
</svg>
